Coordinates
version=1
nRows=65
nColumns=12
inDegrees=yes

Units are S.I. units (second, meters, Newtons, ...)
Angles are in degrees

endheader
time	SC_y	SC_z	SC_x	AC_y	AC_z	AC_x	GH_y	GH_z	GH_yy	EL_x	PS_y
       0.0              -37.88          8.358           24.0          46.55          8.977          9.956         -58.89          10.78         -117.0          96.01          86.84
   0.04767              -37.88          8.357          24.01          46.55          8.973          9.956         -58.88          10.78         -117.0           96.0          86.84
   0.09535              -37.87          8.356          24.02          46.55          8.969          9.957         -58.87          10.79         -117.0          95.99          86.83
     0.143              -37.87          8.355          24.03          46.55          8.965          9.957         -58.86          10.79         -116.9          95.97          86.83
    0.1907              -37.87          8.354          24.04          46.55          8.961          9.958         -58.85          10.79         -116.9          95.96          86.82
    0.2384              -37.87          8.353          24.05          46.55          8.956          9.958         -58.84           10.8         -116.8          95.94          86.81
     0.286              -37.87          8.352          24.06          46.55          8.951          9.959         -58.83           10.8         -116.8          95.93          86.81
    0.3337              -37.86          8.351          24.07          46.55          8.946          9.959         -58.82          10.81         -116.8          95.91           86.8
    0.3814              -37.86          8.349          24.09          46.54           8.94           9.96          -58.8          10.81         -116.7          95.89          86.79
    0.4291              -37.86          8.348           24.1          46.54          8.933           9.96         -58.79          10.82         -116.7          95.87          86.78
    0.4767              -37.85          8.347          24.12          46.54          8.927          9.961         -58.77          10.82         -116.6          95.85          86.77
    0.5244              -37.85          8.345          24.14          46.54           8.92          9.962         -58.75          10.83         -116.5          95.82          86.76
    0.5721              -37.85          8.343          24.15          46.54          8.912          9.963         -58.73          10.84         -116.5           95.8          86.75
    0.6198              -37.84          8.342          24.17          46.54          8.903          9.964         -58.71          10.84         -116.4          95.77          86.73
    0.6674              -37.84           8.34           24.2          46.54          8.894          9.964         -58.69          10.85         -116.3          95.74          86.72
    0.7151              -37.83          8.337          24.22          46.53          8.884          9.965         -58.66          10.86         -116.2          95.71          86.71
    0.7628              -37.83          8.335          24.25          46.53          8.874          9.967         -58.64          10.87         -116.1          95.68          86.69
    0.8105              -37.82          8.333          24.27          46.53          8.862          9.968         -58.61          10.88         -116.0          95.64          86.67
    0.8581              -37.82           8.33           24.3          46.53          8.849          9.969         -58.58          10.89         -115.9           95.6          86.65
    0.9058              -37.81          8.327          24.34          46.52          8.835           9.97         -58.54           10.9         -115.8          95.55          86.63
    0.9535               -37.8          8.323          24.37          46.52           8.82          9.972          -58.5          10.91         -115.7           95.5          86.61
     1.001              -37.79           8.32          24.41          46.52          8.803          9.974         -58.46          10.93         -115.5          95.45          86.59
     1.049              -37.78          8.316          24.46          46.51          8.784          9.976         -58.42          10.94         -115.4          95.39          86.56
     1.097              -37.77          8.311          24.51          46.51          8.764          9.978         -58.36          10.96         -115.2          95.32          86.53
     1.144              -37.76          8.306          24.56           46.5          8.741           9.98         -58.31          10.98         -115.0          95.25          86.49
     1.192              -37.75          8.301          24.62           46.5          8.715          9.983         -58.24           11.0         -114.8          95.16          86.46
      1.24              -37.74          8.294          24.69          46.49          8.686          9.986         -58.17          11.02         -114.5          95.07          86.41
     1.287              -37.72          8.287          24.77          46.49          8.654          9.989         -58.09          11.05         -114.3          94.96          86.37
     1.335               -37.7          8.279          24.85          46.48          8.618          9.993          -58.0          11.08         -114.0          94.85          86.31
     1.383              -37.68           8.27          24.95          46.47          8.576          9.997          -57.9          11.12         -113.6          94.71          86.25
      1.43              -37.66           8.26          25.07          46.46          8.529           10.0         -57.78          11.16         -113.2          94.56          86.18
     1.478              -37.63          8.248           25.2          46.45          8.475          10.01         -57.65           11.2         -112.7          94.38           86.1
     1.526               -37.6          8.235          25.34          46.44          8.412          10.01         -57.49          11.26         -112.2          94.18          86.01
     1.573              -37.57          8.219          25.52          46.42          8.339          10.02         -57.31          11.32         -111.6          93.94           85.9
     1.621              -37.53            8.2          25.72          46.41          8.254          10.03          -57.1          11.39         -110.8          93.67          85.77
     1.669              -37.48          8.179          25.96          46.39          8.154          10.04         -56.85          11.47         -110.0          93.34          85.62
     1.716              -37.42          8.153          26.24          46.36          8.034          10.05         -56.55          11.57         -109.0          92.96          85.45
     1.764              -37.35          8.122          26.58          46.33          7.891          10.07          -56.2          11.69         -107.8          92.49          85.23
     1.812              -37.27          8.084           27.0           46.3          7.718          10.08         -55.77          11.84         -106.3          91.93          84.98
     1.859              -37.16          8.038           27.5          46.26          7.507          10.11         -55.25          12.02         -104.5          91.25          84.66
     1.907              -37.04          7.981          28.12           46.2          7.246          10.13          -54.6          12.24         -102.2           90.4          84.28
     1.955              -36.88          7.911          28.89          46.14          6.921          10.17         -53.79          12.51         -99.46          89.35          83.79
     2.002              -36.68          7.822          29.87          46.06          6.511          10.21         -52.78          12.85         -95.96          88.02          83.19
      2.05              -36.43          7.708          31.11          45.95           5.99          10.26         -51.48          13.29         -91.51          86.33          82.41
     2.098               -36.1          7.564           32.7          45.82          5.323          10.33         -49.83          13.85         -85.82          84.17          81.43
     2.145              -35.69          7.378          34.74          45.65          4.467          10.42         -47.71          14.57         -78.51          81.39          80.16
     2.193              -35.16           7.14          37.34          45.43          3.374          10.53         -44.99          15.49         -69.18          77.85          78.54
     2.241              -34.49          6.841          40.61          45.15            2.0          10.67         -41.58          16.65         -57.44           73.4           76.5
     2.288              -33.67          6.477           44.6          44.81         0.3249          10.84         -37.43          18.06         -43.14          67.97          74.01
     2.336              -32.73          6.055          49.22          44.42         -1.616          11.04         -32.61          19.69         -26.56          61.68          71.14
     2.384              -31.71          5.599          54.22           44.0         -3.719          11.25          -27.4          21.46          -8.61          54.86          68.02
     2.431              -30.69          5.142          59.23          43.58         -5.821          11.46         -22.18          23.23          9.342          48.05           64.9
     2.479              -29.74           4.72          63.85          43.18         -7.762          11.66         -17.36          24.86          25.92          41.76          62.02
     2.527              -28.93          4.356          67.84          42.85         -9.437          11.83         -13.21          26.27          40.22          36.33          59.54
     2.574              -28.26          4.057          71.11          42.57         -10.81          11.97         -9.799          27.42          51.96          31.87           57.5
     2.622              -27.73           3.82          73.71          42.35          -11.9          12.08         -7.087          28.34          61.29          28.33          55.88
      2.67              -27.31          3.634          75.75          42.18         -12.76          12.17         -4.964          29.06           68.6          25.56          54.61
     2.717              -26.99          3.489          77.34          42.05         -13.43          12.24          -3.31          29.62           74.3           23.4          53.62
     2.765              -26.74          3.376          78.58          41.94         -13.95          12.29         -2.017          30.06          78.74          21.71          52.85
     2.813              -26.54          3.287          79.55          41.86         -14.36          12.33           -1.0           30.4          82.24          20.38          52.24
      2.86              -26.38          3.216          80.33          41.79         -14.68          12.37        -0.1933          30.68          85.02          19.33          51.76
     2.908              -26.25          3.159          80.95          41.74         -14.94          12.39         0.4539           30.9          87.25          18.48          51.37
     2.956              -26.15          3.113          81.45           41.7         -15.16          12.41         0.9784          31.08          89.05           17.8          51.06
     3.004              -26.07          3.076          81.86          41.66         -15.33          12.43          1.408          31.22          90.53          17.23           50.8
     3.051               -26.0          3.045           82.2          41.63         -15.47          12.45          1.762          31.34          91.75          16.77          50.59
